<svg xmlns="http://www.w3.org/2000/svg" xmlns:xlink="http://www.w3.org/1999/xlink" width="128" zoomAndPan="magnify" viewBox="0 0 96 95.999999" height="128" preserveAspectRatio="xMidYMid meet" version="1.0"><defs><clipPath id="0912763101"><path d="M 3.882812 17.964844 L 92.382812 17.964844 L 92.382812 74 L 3.882812 74 Z M 3.882812 17.964844 " clip-rule="nonzero"/></clipPath><clipPath id="7703e0c366"><path d="M 32 36 L 65 36 L 65 77.964844 L 32 77.964844 Z M 32 36 " clip-rule="nonzero"/></clipPath></defs><rect x="-9.6" width="115.2" fill="#ffffff" y="-9.6" height="115.199999" fill-opacity="1"/><rect x="-9.6" width="115.2" fill="#131313" y="-9.6" height="115.199999" fill-opacity="1"/><g clip-path="url(#0912763101)"><path fill="#8e48f8" d="M 87.09375 45.886719 C 84.3125 43.179688 80.433594 41.324219 76.511719 41.078125 C 76.015625 41.046875 73.742188 41.210938 73.558594 40.960938 C 75.136719 24.785156 58.011719 13.035156 43.3125 20.023438 C 38.273438 22.421875 33.945312 27.132812 32.371094 32.527344 C 23.066406 28.414062 12.804688 36.617188 14.476562 46.566406 C 4.5625 48.792969 0.609375 60.492188 6.960938 68.476562 C 9.550781 71.734375 13.363281 73.457031 17.492188 73.78125 L 29.148438 73.785156 L 29.148438 63.695312 C 29.117188 62.230469 29.121094 60.726562 29.148438 59.347656 C 29.179688 57.824219 29.238281 56.449219 29.300781 55.449219 C 29.519531 52.046875 31.523438 49.246094 34.871094 48.371094 C 34.789062 44.96875 35.351562 41.78125 37.378906 39 C 42.585938 31.863281 52.902344 31.363281 58.753906 38.015625 C 61.332031 40.945312 62.285156 44.457031 62.027344 48.347656 C 64.222656 49.011719 66.285156 50.75 67.085938 52.929688 C 67.503906 54.058594 67.644531 55.355469 67.667969 56.691406 L 67.726562 56.691406 L 67.726562 73.742188 C 73.667969 73.730469 79.539062 74.648438 84.8125 71.230469 C 93.613281 65.53125 94.554688 53.15625 87.09375 45.886719 Z M 87.09375 45.886719 " fill-opacity="1" fill-rule="nonzero"/></g><g clip-path="url(#7703e0c366)"><path fill="#8e48f8" d="M 59.730469 51.207031 L 58.695312 51.207031 C 58.824219 46.546875 58.921875 42.503906 55.113281 39.230469 C 49.960938 34.804688 41.65625 36.566406 39.082031 42.875 C 37.945312 45.65625 38.585938 48.335938 38.273438 51.207031 L 37.199219 51.207031 C 34.691406 51.207031 32.660156 53.242188 32.660156 55.75 L 32.660156 73.492188 C 32.660156 74.054688 32.761719 74.589844 32.949219 75.089844 C 33.59375 76.808594 35.253906 78.03125 37.199219 78.03125 L 59.730469 78.03125 C 61.625 78.03125 63.25 76.871094 63.929688 75.226562 C 64.152344 74.691406 64.273438 74.105469 64.273438 73.488281 L 64.273438 55.75 C 64.273438 53.242188 62.238281 51.207031 59.730469 51.207031 Z M 50.277344 63.777344 C 50.035156 64.828125 50.839844 68.53125 49.421875 68.800781 C 48.6875 68.9375 47.203125 68.957031 46.824219 68.210938 C 46.371094 67.320312 46.957031 64.25 46.652344 63.71875 C 46.621094 63.664062 45.90625 63.152344 45.679688 62.839844 C 43.277344 59.542969 47.582031 55.6875 50.757812 58.273438 C 52.597656 59.777344 52.203125 62.554688 50.277344 63.777344 Z M 54.214844 51.207031 L 42.726562 51.207031 C 42.75 50.15625 42.667969 49.089844 42.714844 48.039062 C 42.84375 45.164062 43.375 42.734375 46.335938 41.570312 C 49.601562 40.289062 54.214844 42.585938 54.214844 46.257812 L 54.214844 51.210938 Z M 54.214844 51.207031 " fill-opacity="1" fill-rule="nonzero"/></g></svg>